<svg xmlns="http://www.w3.org/2000/svg" width="1120" height="466" viewBox="0 0 1120 466">
<rect width="100%" height="100%" fill="white"/>
<text x="24" y="28" font-family="Arial, sans-serif" font-size="18" font-weight="700">Microraptor auto parse throughput</text>
<text x="24" y="46" font-family="Arial, sans-serif" font-size="12" fill="#555">bases/s; parse-only auto opener rows generated from benchmark JSONL</text>
<text x="24" y="71" font-family="Arial, sans-serif" font-size="12" fill="#222">single.fastq / file-auto</text>
<rect x="310" y="58" width="620" height="18" fill="#1f766f"/>
<text x="938" y="71" font-family="Arial, sans-serif" font-size="12" fill="#222">2.11 Gbases/s</text>
<text x="24" y="101" font-family="Arial, sans-serif" font-size="12" fill="#222">single.fastq.gz / file-auto</text>
<rect x="310" y="88" width="193" height="18" fill="#1f766f"/>
<text x="511" y="101" font-family="Arial, sans-serif" font-size="12" fill="#222">0.66 Gbases/s</text>
<text x="24" y="131" font-family="Arial, sans-serif" font-size="12" fill="#222">single.fastq.bgz / file-auto</text>
<rect x="310" y="118" width="293" height="18" fill="#1f766f"/>
<text x="611" y="131" font-family="Arial, sans-serif" font-size="12" fill="#222">1.00 Gbases/s</text>
<text x="24" y="161" font-family="Arial, sans-serif" font-size="12" fill="#222">interleaved.fastq / file-auto</text>
<rect x="310" y="148" width="549" height="18" fill="#1f766f"/>
<text x="867" y="161" font-family="Arial, sans-serif" font-size="12" fill="#222">1.87 Gbases/s</text>
<text x="24" y="191" font-family="Arial, sans-serif" font-size="12" fill="#222">interleaved.fastq.gz / file-auto</text>
<rect x="310" y="178" width="210" height="18" fill="#1f766f"/>
<text x="528" y="191" font-family="Arial, sans-serif" font-size="12" fill="#222">0.72 Gbases/s</text>
<text x="24" y="221" font-family="Arial, sans-serif" font-size="12" fill="#222">interleaved.fastq.bgz / file-auto</text>
<rect x="310" y="208" width="178" height="18" fill="#1f766f"/>
<text x="496" y="221" font-family="Arial, sans-serif" font-size="12" fill="#222">0.61 Gbases/s</text>
<text x="24" y="251" font-family="Arial, sans-serif" font-size="12" fill="#222">r1.fastq / file-auto</text>
<rect x="310" y="238" width="650" height="18" fill="#1f766f"/>
<text x="968" y="251" font-family="Arial, sans-serif" font-size="12" fill="#222">2.21 Gbases/s</text>
<text x="24" y="281" font-family="Arial, sans-serif" font-size="12" fill="#222">r2.fastq / file-auto</text>
<rect x="310" y="268" width="547" height="18" fill="#1f766f"/>
<text x="865" y="281" font-family="Arial, sans-serif" font-size="12" fill="#222">1.86 Gbases/s</text>
<text x="24" y="311" font-family="Arial, sans-serif" font-size="12" fill="#222">r1.fastq+r2.fastq / file-paired-auto</text>
<rect x="310" y="298" width="404" height="18" fill="#1f766f"/>
<text x="722" y="311" font-family="Arial, sans-serif" font-size="12" fill="#222">1.38 Gbases/s</text>
<text x="24" y="341" font-family="Arial, sans-serif" font-size="12" fill="#222">r1.fastq.gz+r2.fastq.gz / file-paired-auto</text>
<rect x="310" y="328" width="191" height="18" fill="#1f766f"/>
<text x="509" y="341" font-family="Arial, sans-serif" font-size="12" fill="#222">0.65 Gbases/s</text>
<text x="24" y="371" font-family="Arial, sans-serif" font-size="12" fill="#222">r1.fastq.bgz+r2.fastq.bgz / file-paired-auto</text>
<rect x="310" y="358" width="218" height="18" fill="#1f766f"/>
<text x="536" y="371" font-family="Arial, sans-serif" font-size="12" fill="#222">0.74 Gbases/s</text>
<text x="24" y="401" font-family="Arial, sans-serif" font-size="12" fill="#222">illumina_pe_r1.1m.fq+illumina_pe_r2.1m.fq / file-paired-auto</text>
<rect x="310" y="388" width="168" height="18" fill="#1f766f"/>
<text x="486" y="401" font-family="Arial, sans-serif" font-size="12" fill="#222">0.58 Gbases/s</text>
</svg>
