<svg xmlns="http://www.w3.org/2000/svg" width="1120" height="526" viewBox="0 0 1120 526">
<rect width="100%" height="100%" fill="white"/>
<text x="24" y="28" font-family="Arial, sans-serif" font-size="18" font-weight="700">Microraptor auto parse throughput</text>
<text x="24" y="46" font-family="Arial, sans-serif" font-size="12" fill="#555">bases/s; parse-only auto opener rows generated from benchmark JSONL</text>
<text x="24" y="71" font-family="Arial, sans-serif" font-size="12" fill="#222">single.fastq / file-auto</text>
<rect x="310" y="58" width="262" height="18" fill="#1f766f"/>
<text x="580" y="71" font-family="Arial, sans-serif" font-size="12" fill="#222">0.90 Gbases/s</text>
<text x="24" y="101" font-family="Arial, sans-serif" font-size="12" fill="#222">single.fastq.gz / file-auto</text>
<rect x="310" y="88" width="224" height="18" fill="#1f766f"/>
<text x="542" y="101" font-family="Arial, sans-serif" font-size="12" fill="#222">0.77 Gbases/s</text>
<text x="24" y="131" font-family="Arial, sans-serif" font-size="12" fill="#222">single.fastq.bgz / file-auto</text>
<rect x="310" y="118" width="273" height="18" fill="#1f766f"/>
<text x="591" y="131" font-family="Arial, sans-serif" font-size="12" fill="#222">0.94 Gbases/s</text>
<text x="24" y="161" font-family="Arial, sans-serif" font-size="12" fill="#222">interleaved.fastq / file-auto</text>
<rect x="310" y="148" width="647" height="18" fill="#1f766f"/>
<text x="965" y="161" font-family="Arial, sans-serif" font-size="12" fill="#222">2.23 Gbases/s</text>
<text x="24" y="191" font-family="Arial, sans-serif" font-size="12" fill="#222">interleaved.fastq.gz / file-auto</text>
<rect x="310" y="178" width="315" height="18" fill="#1f766f"/>
<text x="633" y="191" font-family="Arial, sans-serif" font-size="12" fill="#222">1.08 Gbases/s</text>
<text x="24" y="221" font-family="Arial, sans-serif" font-size="12" fill="#222">interleaved.fastq.bgz / file-auto</text>
<rect x="310" y="208" width="253" height="18" fill="#1f766f"/>
<text x="571" y="221" font-family="Arial, sans-serif" font-size="12" fill="#222">0.87 Gbases/s</text>
<text x="24" y="251" font-family="Arial, sans-serif" font-size="12" fill="#222">r1.fastq / file-auto</text>
<rect x="310" y="238" width="344" height="18" fill="#1f766f"/>
<text x="662" y="251" font-family="Arial, sans-serif" font-size="12" fill="#222">1.19 Gbases/s</text>
<text x="24" y="281" font-family="Arial, sans-serif" font-size="12" fill="#222">r2.fastq / file-auto</text>
<rect x="310" y="268" width="458" height="18" fill="#1f766f"/>
<text x="776" y="281" font-family="Arial, sans-serif" font-size="12" fill="#222">1.58 Gbases/s</text>
<text x="24" y="311" font-family="Arial, sans-serif" font-size="12" fill="#222">r1.fastq+r2.fastq / file-paired-auto</text>
<rect x="310" y="298" width="244" height="18" fill="#1f766f"/>
<text x="562" y="311" font-family="Arial, sans-serif" font-size="12" fill="#222">0.84 Gbases/s</text>
<text x="24" y="341" font-family="Arial, sans-serif" font-size="12" fill="#222">r1.fastq.gz+r2.fastq.gz / file-paired-auto</text>
<rect x="310" y="328" width="176" height="18" fill="#1f766f"/>
<text x="494" y="341" font-family="Arial, sans-serif" font-size="12" fill="#222">0.61 Gbases/s</text>
<text x="24" y="371" font-family="Arial, sans-serif" font-size="12" fill="#222">r1.fastq.bgz+r2.fastq.bgz / file-paired-auto</text>
<rect x="310" y="358" width="201" height="18" fill="#1f766f"/>
<text x="519" y="371" font-family="Arial, sans-serif" font-size="12" fill="#222">0.69 Gbases/s</text>
<text x="24" y="401" font-family="Arial, sans-serif" font-size="12" fill="#222">pacbio_clr_subreads.50k.fq / file-auto</text>
<rect x="310" y="388" width="476" height="18" fill="#1f766f"/>
<text x="794" y="401" font-family="Arial, sans-serif" font-size="12" fill="#222">1.64 Gbases/s</text>
<text x="24" y="431" font-family="Arial, sans-serif" font-size="12" fill="#222">ont.50k.fq / file-auto</text>
<rect x="310" y="418" width="650" height="18" fill="#1f766f"/>
<text x="968" y="431" font-family="Arial, sans-serif" font-size="12" fill="#222">2.24 Gbases/s</text>
<text x="24" y="461" font-family="Arial, sans-serif" font-size="12" fill="#222">illumina_pe_r1.1m.fq+illumina_pe_r2.1m.fq / file-paired-auto</text>
<rect x="310" y="448" width="152" height="18" fill="#1f766f"/>
<text x="470" y="461" font-family="Arial, sans-serif" font-size="12" fill="#222">0.53 Gbases/s</text>
</svg>
