<svg xmlns="http://www.w3.org/2000/svg" width="1120" height="496" viewBox="0 0 1120 496">
<rect width="100%" height="100%" fill="white"/>
<text x="24" y="28" font-family="Arial, sans-serif" font-size="18" font-weight="700">Microraptor auto parse throughput</text>
<text x="24" y="46" font-family="Arial, sans-serif" font-size="12" fill="#555">bases/s; parse-only auto opener rows generated from benchmark JSONL</text>
<text x="24" y="71" font-family="Arial, sans-serif" font-size="12" fill="#222">single.fastq / file-auto</text>
<rect x="310" y="58" width="358" height="18" fill="#1f766f"/>
<text x="676" y="71" font-family="Arial, sans-serif" font-size="12" fill="#222">1.19 Gbases/s</text>
<text x="24" y="101" font-family="Arial, sans-serif" font-size="12" fill="#222">single.fastq.gz / file-auto</text>
<rect x="310" y="88" width="212" height="18" fill="#1f766f"/>
<text x="530" y="101" font-family="Arial, sans-serif" font-size="12" fill="#222">0.70 Gbases/s</text>
<text x="24" y="131" font-family="Arial, sans-serif" font-size="12" fill="#222">single.fastq.bgz / file-auto</text>
<rect x="310" y="118" width="650" height="18" fill="#1f766f"/>
<text x="968" y="131" font-family="Arial, sans-serif" font-size="12" fill="#222">2.15 Gbases/s</text>
<text x="24" y="161" font-family="Arial, sans-serif" font-size="12" fill="#222">interleaved.fastq / file-auto</text>
<rect x="310" y="148" width="583" height="18" fill="#1f766f"/>
<text x="901" y="161" font-family="Arial, sans-serif" font-size="12" fill="#222">1.93 Gbases/s</text>
<text x="24" y="191" font-family="Arial, sans-serif" font-size="12" fill="#222">interleaved.fastq.gz / file-auto</text>
<rect x="310" y="178" width="217" height="18" fill="#1f766f"/>
<text x="535" y="191" font-family="Arial, sans-serif" font-size="12" fill="#222">0.72 Gbases/s</text>
<text x="24" y="221" font-family="Arial, sans-serif" font-size="12" fill="#222">interleaved.fastq.bgz / file-auto</text>
<rect x="310" y="208" width="587" height="18" fill="#1f766f"/>
<text x="905" y="221" font-family="Arial, sans-serif" font-size="12" fill="#222">1.95 Gbases/s</text>
<text x="24" y="251" font-family="Arial, sans-serif" font-size="12" fill="#222">r1.fastq / file-auto</text>
<rect x="310" y="238" width="509" height="18" fill="#1f766f"/>
<text x="827" y="251" font-family="Arial, sans-serif" font-size="12" fill="#222">1.69 Gbases/s</text>
<text x="24" y="281" font-family="Arial, sans-serif" font-size="12" fill="#222">r2.fastq / file-auto</text>
<rect x="310" y="268" width="412" height="18" fill="#1f766f"/>
<text x="730" y="281" font-family="Arial, sans-serif" font-size="12" fill="#222">1.37 Gbases/s</text>
<text x="24" y="311" font-family="Arial, sans-serif" font-size="12" fill="#222">r1.fastq+r2.fastq / file-paired-auto</text>
<rect x="310" y="298" width="392" height="18" fill="#1f766f"/>
<text x="710" y="311" font-family="Arial, sans-serif" font-size="12" fill="#222">1.30 Gbases/s</text>
<text x="24" y="341" font-family="Arial, sans-serif" font-size="12" fill="#222">r1.fastq.gz+r2.fastq.gz / file-paired-auto</text>
<rect x="310" y="328" width="188" height="18" fill="#1f766f"/>
<text x="506" y="341" font-family="Arial, sans-serif" font-size="12" fill="#222">0.63 Gbases/s</text>
<text x="24" y="371" font-family="Arial, sans-serif" font-size="12" fill="#222">r1.fastq.bgz+r2.fastq.bgz / file-paired-auto</text>
<rect x="310" y="358" width="355" height="18" fill="#1f766f"/>
<text x="673" y="371" font-family="Arial, sans-serif" font-size="12" fill="#222">1.18 Gbases/s</text>
<text x="24" y="401" font-family="Arial, sans-serif" font-size="12" fill="#222">illumina_pe_r1.1m.fq.gz+illumina_pe_r2.1m.fq.gz / file-paired-auto</text>
<rect x="310" y="388" width="23" height="18" fill="#1f766f"/>
<text x="341" y="401" font-family="Arial, sans-serif" font-size="12" fill="#222">0.08 Gbases/s</text>
<text x="24" y="431" font-family="Arial, sans-serif" font-size="12" fill="#222">illumina_pe_r1.1m.fq.bgz+illumina_pe_r2.1m.fq.bgz / file-paired-auto</text>
<rect x="310" y="418" width="143" height="18" fill="#1f766f"/>
<text x="461" y="431" font-family="Arial, sans-serif" font-size="12" fill="#222">0.47 Gbases/s</text>
</svg>
